<svg width="1080" height="1080" viewBox="0 0 1080 1080" fill="none" xmlns="http://www.w3.org/2000/svg">
<path d="M685.179 226.447C715.249 196.377 764.003 196.377 794.073 226.447L855.791 288.165C885.861 318.235 885.861 366.989 855.791 397.06L477.481 775.369L306.869 604.757L685.179 226.447Z" fill="#DFDFFE"/>
<path fill-rule="evenodd" clip-rule="evenodd" d="M235 778.883L305.648 849.531L445.531 812.049L272.482 639L235 778.883Z" fill="#DFDFFE"/>
<path d="M204.514 836.434C207.104 826.768 219.187 823.53 226.263 830.607L254.446 858.79C261.522 865.866 258.285 877.949 248.618 880.539L210.12 890.855C200.453 893.445 191.608 884.6 194.198 874.933L204.514 836.434Z" fill="#DFDFFE"/>
</svg>
