<svg width="1080" height="1080" viewBox="0 0 1080 1080" fill="none" xmlns="http://www.w3.org/2000/svg">
<path d="M767 540C767 665.369 665.369 767 540 767C414.631 767 313 665.369 313 540C313 414.631 414.631 313 540 313C665.369 313 767 414.631 767 540Z" fill="#DFDFFE"/>
<path d="M475 139C475 103.101 504.101 74 540 74C575.899 74 605 103.101 605 139V202C605 237.898 575.899 267 540 267C504.101 267 475 237.899 475 202V139Z" fill="#DFDFFE"/>
<path d="M475 878C475 842.101 504.101 813 540 813C575.899 813 605 842.101 605 878V941C605 976.898 575.899 1006 540 1006C504.101 1006 475 976.899 475 941V878Z" fill="#DFDFFE"/>
<path d="M878 605C842.101 605 813 575.899 813 540C813 504.101 842.101 475 878 475H941C976.898 475 1006 504.101 1006 540C1006 575.899 976.899 605 941 605H878Z" fill="#DFDFFE"/>
<path d="M139 605C103.101 605 74 575.899 74 540C74 504.101 103.101 475 139 475H202C237.898 475 267 504.101 267 540C267 575.899 237.899 605 202 605H139Z" fill="#DFDFFE"/>
<path d="M777.588 210.488C802.972 185.104 844.128 185.104 869.512 210.488C894.896 235.872 894.896 277.028 869.512 302.412L824.964 346.96C799.58 372.344 758.424 372.344 733.04 346.96C707.656 321.576 707.656 280.42 733.04 255.036L777.588 210.488Z" fill="#DFDFFE"/>
<path d="M255.036 733.04C280.42 707.656 321.576 707.656 346.96 733.04C372.344 758.424 372.344 799.58 346.96 824.964L302.412 869.512C277.028 894.896 235.872 894.896 210.488 869.512C185.104 844.128 185.104 802.972 210.488 777.588L255.036 733.04Z" fill="#DFDFFE"/>
<path d="M733.04 824.964C707.656 799.58 707.656 758.424 733.04 733.04C758.424 707.656 799.58 707.656 824.964 733.04L869.512 777.588C894.896 802.972 894.896 844.128 869.512 869.512C844.128 894.896 802.972 894.896 777.588 869.512L733.04 824.964Z" fill="#DFDFFE"/>
<path d="M210.488 302.412C185.104 277.028 185.104 235.872 210.488 210.488C235.872 185.104 277.028 185.104 302.412 210.488L346.96 255.036C372.344 280.42 372.344 321.576 346.96 346.96C321.576 372.344 280.42 372.344 255.036 346.96L210.488 302.412Z" fill="#DFDFFE"/>
</svg>
