<svg width="1080" height="1080" viewBox="0 0 1080 1080" fill="none" xmlns="http://www.w3.org/2000/svg">
<path d="M427.204 436.714H258.744L234.678 543H137L255.205 47H430.743L548.948 578L451.269 543L427.204 436.714ZM278.563 347.434H406.677L349.344 93.7657H336.604L278.563 347.434Z" fill="#DFDFFE"/>
<path d="M610.743 47H942V136.28H823.087V453.72H942V543H610.743V453.72H729.656V136.28H610.743V47Z" fill="#DFDFFE"/>
<path d="M137 540L457.6 540C513.6 540 557.467 554.933 589.2 584.8C620.933 614.2 636.8 658.067 636.8 716.4C636.8 774.733 620.933 818.833 589.2 848.7C557.467 878.1 513.6 892.8 457.6 892.8H137L137 800.4H452H457.6C486.533 800.4 509.167 793.633 525.5 780.1C541.833 766.567 550 745.333 550 716.4C550 687.467 541.833 666.233 525.5 652.7C509.167 639.167 486.533 632.4 457.6 632.4H452H137L137 540Z" fill="#DFDFFE"/>
<path fill-rule="evenodd" clip-rule="evenodd" d="M452 800.4V880.2L540.2 859.293V762.6H853.8V892.8H942V540H853.8V670.2L540.2 670.2V572.793L452 552.6V632.4H457.6C486.533 632.4 509.167 639.167 525.5 652.7C541.833 666.233 550 687.467 550 716.4C550 745.333 541.833 766.567 525.5 780.1C509.167 793.633 486.533 800.4 457.6 800.4H452Z" fill="#DFDFFE"/>
</svg>
