<svg width="3163" height="1080" viewBox="0 0 3163 1080" fill="none" xmlns="http://www.w3.org/2000/svg">
<path d="M716.8 137L716.8 457.6C716.8 513.6 701.866 557.467 672 589.2C642.6 620.933 598.733 636.8 540.4 636.8C482.066 636.8 437.966 620.933 408.1 589.2C378.7 557.467 364 513.6 364 457.6L364 137L456.4 137L456.4 452L456.4 457.6C456.4 486.533 463.166 509.167 476.7 525.5C490.233 541.833 511.466 550 540.4 550C569.333 550 590.566 541.833 604.1 525.5C617.633 509.167 624.4 486.533 624.4 457.6L624.4 452L624.4 137L716.8 137Z" fill="#DFDFFE"/>
<path fill-rule="evenodd" clip-rule="evenodd" d="M456.4 452L376.6 452L376.6 540.2L494.2 540.2L494.2 853.8L376.6 853.8L376.6 942L704.2 942L704.2 853.8L586.6 853.8L586.6 540.2L704.2 540.2L704.2 452L624.4 452L624.4 457.6C624.4 486.533 617.633 509.167 604.1 525.5C590.566 541.833 569.333 550 540.4 550C511.466 550 490.233 541.833 476.7 525.5C463.166 509.167 456.4 486.533 456.4 457.6L456.4 452Z" fill="#DFDFFE"/>
<path d="M1323.27 700H1156.67L1132.87 805H1036.27L1153.17 315H1326.77L1443.67 805H1347.07L1323.27 700ZM1176.27 611.8H1302.97L1246.27 361.2H1233.67L1176.27 611.8ZM1504.79 315H1832.39V403.2H1714.79V716.8H1832.39V805H1504.79V716.8H1622.39V403.2H1504.79V315ZM2273.6 315V635.6C2273.6 691.6 2258.67 735.467 2228.8 767.2C2199.4 798.933 2155.53 814.8 2097.2 814.8C2038.87 814.8 1994.77 798.933 1964.9 767.2C1935.5 735.467 1920.8 691.6 1920.8 635.6V315H2013.2V635.6C2013.2 664.533 2019.97 687.167 2033.5 703.5C2047.03 719.833 2068.27 728 2097.2 728C2126.13 728 2147.37 719.833 2160.9 703.5C2174.43 687.167 2181.2 664.533 2181.2 635.6V315H2273.6ZM2362.01 315H2689.61V403.2H2572.01V716.8H2689.61V805H2362.01V716.8H2479.61V403.2H2362.01V315Z" fill="#DFDFFE"/>
</svg>
