<svg width="1080" height="1080" viewBox="0 0 1080 1080" fill="none" xmlns="http://www.w3.org/2000/svg">
<path d="M291 285.5L543.75 139.575L543.75 431.425L291 285.5Z" fill="#DFDFFE"/>
<path d="M796 806.5L543.25 952.425L543.25 660.575L796 806.5Z" fill="#DFDFFE"/>
<path fill-rule="evenodd" clip-rule="evenodd" d="M208 539.5C208 471.54 228.45 408.357 263.532 355.768L367.685 416.136C342.709 450.86 328 493.462 328 539.5C328 656.308 422.692 751 539.5 751C553.111 751 566.421 749.714 579.317 747.258L550 797.837L646.046 853.506C612.607 864.849 576.772 871 539.5 871C356.418 871 208 722.582 208 539.5ZM808.062 733.878C847.655 679.269 871 612.111 871 539.5C871 356.418 722.582 208 539.5 208C496.301 208 455.033 216.263 417.188 231.294L534 299L516.473 329.239C524.036 328.42 531.719 328 539.5 328C656.308 328 751 422.692 751 539.5C751 590.219 733.147 636.767 703.384 673.206L808.062 733.878Z" fill="#DFDFFE"/>
</svg>
