<svg width="1080" height="1080" viewBox="0 0 1080 1080" fill="none" xmlns="http://www.w3.org/2000/svg">
<path fill-rule="evenodd" clip-rule="evenodd" d="M330 417H749L683 838.26C683 879.538 648.526 913 606 913H459C416.474 913 382 879.538 382 838.26L330 417ZM453 544.5C453 530.969 463.969 520 477.5 520C491.031 520 502 530.969 502 544.5V774.075C502 787.606 491.031 798.575 477.5 798.575C463.969 798.575 453 787.606 453 774.075V544.5ZM602.5 520C588.969 520 578 530.969 578 544.5V774.075C578 787.606 588.969 798.575 602.5 798.575C616.031 798.575 627 787.606 627 774.075V544.5C627 530.969 616.031 520 602.5 520Z" fill="#DFDFFE"/>
<path d="M302 330C302 287.474 336.474 253 379 253H701C743.526 253 778 287.474 778 330V366H302V330Z" fill="#DFDFFE"/>
<path d="M435 205C435 182.356 453.356 164 476 164H604C626.644 164 645 182.356 645 205H435Z" fill="#DFDFFE"/>
</svg>
