<svg width="1080" height="1080" viewBox="0 0 1080 1080" fill="none" xmlns="http://www.w3.org/2000/svg">
<path fill-rule="evenodd" clip-rule="evenodd" d="M601 198C601 177.565 584.435 161 564 161H515C494.565 161 478 177.565 478 198V272.194C478 289.062 466.469 303.523 450.742 309.62C447.054 311.05 443.41 312.566 439.811 314.165C424.366 321.027 405.946 318.972 393.996 307.021L341.51 254.536C327.061 240.087 303.634 240.087 289.184 254.536L254.536 289.184C240.087 303.634 240.087 327.061 254.536 341.51L307.021 393.996C318.972 405.946 321.027 424.366 314.165 439.811C312.566 443.41 311.05 447.054 309.62 450.742C303.523 466.469 289.063 478 272.195 478H198C177.565 478 161 494.565 161 515L161 564C161 584.435 177.565 601 198 601H271.813C288.739 601 303.234 612.607 309.294 628.411C310.742 632.187 312.279 635.918 313.904 639.602C320.709 655.026 318.633 673.392 306.712 685.313L254.535 737.49C240.086 751.939 240.086 775.366 254.535 789.816L289.184 824.464C303.633 838.913 327.06 838.913 341.51 824.464L393.306 772.668C405.285 760.689 423.761 758.655 439.224 765.574C443.014 767.269 446.854 768.872 450.742 770.38C466.469 776.477 478 790.938 478 807.805V881C478 901.435 494.565 918 515 918H564C584.435 918 601 901.435 601 881V808.187C601 791.261 612.607 776.766 628.411 770.706C632.388 769.181 636.315 767.557 640.189 765.835C655.633 758.973 674.054 761.028 686.004 772.978L737.49 824.464C751.939 838.913 775.366 838.913 789.816 824.464L824.464 789.816C838.913 775.366 838.913 751.939 824.464 737.49L772.978 686.004C761.028 674.054 758.973 655.633 765.835 640.189C767.557 636.315 769.181 632.388 770.706 628.411C776.766 612.607 791.261 601 808.187 601H881C901.435 601 918 584.435 918 564V515C918 494.565 901.435 478 881 478H807.806C790.938 478 776.477 466.469 770.38 450.742C768.872 446.854 767.269 443.014 765.574 439.224C758.655 423.761 760.689 405.285 772.668 393.306L824.464 341.51C838.913 327.061 838.913 303.634 824.464 289.184L789.815 254.536C775.366 240.087 751.939 240.087 737.489 254.536L685.313 306.712C673.392 318.633 655.026 320.709 639.602 313.904C635.918 312.279 632.187 310.742 628.411 309.294C612.607 303.234 601 288.739 601 271.813V198ZM625 540C625 586.944 586.944 625 540 625C493.056 625 455 586.944 455 540C455 493.056 493.056 455 540 455C586.944 455 625 493.056 625 540ZM691 540C691 623.395 623.395 691 540 691C456.605 691 389 623.395 389 540C389 456.605 456.605 389 540 389C623.395 389 691 456.605 691 540Z" fill="#DFDFFE"/>
</svg>
