<svg width="1080" height="1080" viewBox="0 0 1080 1080" fill="none" xmlns="http://www.w3.org/2000/svg">
<path fill-rule="evenodd" clip-rule="evenodd" d="M718.303 211.685C735.482 194.506 726.681 166.078 702.409 167.135C653.644 169.257 605.501 188.936 568.267 226.171C489.296 305.142 489.296 433.179 568.267 512.151C647.238 591.122 775.275 591.122 854.247 512.151C891.943 474.454 911.645 425.578 913.353 376.195C914.19 352.009 885.839 343.354 868.726 360.466L762.919 466.273C754.436 474.757 741.818 477.584 730.526 473.531L652.699 445.596C643.983 442.468 637.122 435.607 633.994 426.891L606.06 349.064C602.007 337.772 604.833 325.155 613.317 316.671L718.303 211.685Z" fill="#DFDFFE"/>
<path fill-rule="evenodd" clip-rule="evenodd" d="M641.478 438.94C613.521 410.983 568.194 410.983 540.237 438.94L173.621 805.556C145.664 833.513 145.664 878.84 173.621 906.797C201.578 934.754 246.905 934.754 274.862 906.797L641.478 540.181C669.435 512.224 669.435 466.897 641.478 438.94ZM196.63 883.788C211.879 899.037 236.603 899.037 251.852 883.788C267.102 868.538 267.102 843.814 251.853 828.565C236.603 813.316 211.879 813.316 196.63 828.565C181.381 843.814 181.381 868.538 196.63 883.788Z" fill="#DFDFFE"/>
</svg>
